<svg width="23" height="12" viewBox="0 0 23 12" fill="none" xmlns="http://www.w3.org/2000/svg">
<path d="M5.49425 1.45386C5.19017 1.45386 4.94368 1.2071 4.94368 0.90271C4.94368 0.598322 5.19017 0.351562 5.49425 0.351562H9.89885C10.507 0.351562 11 0.845076 11 1.45386V5.86303C11 6.16743 10.7535 6.41418 10.4494 6.41418C10.1453 6.41418 9.89885 6.16743 9.89885 5.86303V2.22184L0.93989 11.1901C0.72488 11.4054 0.376272 11.4054 0.161262 11.1901C-0.053754 10.9749 -0.053754 10.6259 0.161262 10.4107L9.10878 1.45386H5.49425Z" fill="#09FF30"/>
<path d="M17.1479 10.2405C17.4514 10.2204 17.7136 10.4503 17.7338 10.754C17.754 11.0577 17.5243 11.3203 17.2209 11.3404L12.826 11.6321C12.2192 11.6723 11.6946 11.2125 11.6543 10.6051L11.3623 6.20561C11.3421 5.90188 11.5718 5.63935 11.8752 5.61921C12.1786 5.59907 12.4409 5.82896 12.461 6.13269L12.7022 9.76589L21.0476 0.224009C21.2479 -0.00497913 21.5957 -0.0280638 21.8245 0.172448C22.0533 0.373016 22.0764 0.721182 21.8761 0.950226L13.5413 10.4799L17.1479 10.2405Z" fill="#09FF30"/>
</svg>
