<svg width="58" height="58" viewBox="0 0 58 58" fill="none" xmlns="http://www.w3.org/2000/svg">
<g clip-path="url(#clip0_389_2880)">
<path d="M45.3913 5.4375H5.04348C2.25805 5.4375 0 7.69555 0 10.481V40.7419C0 43.5274 2.25805 45.7854 5.04348 45.7854H45.3913C48.1768 45.7854 50.4348 43.5274 50.4348 40.7419V10.481C50.4348 7.69555 48.1768 5.4375 45.3913 5.4375Z" fill="url(#paint0_linear_389_2880)"/>
<path d="M47.9131 10.4805H5.04348C2.25805 10.4805 0 12.7385 0 15.5239V45.7849C0 48.5702 2.25805 50.8284 5.04348 50.8284H47.9131C50.6985 50.8284 52.9565 48.5702 52.9565 45.7849V15.5239C52.9565 12.7385 50.6985 10.4805 47.9131 10.4805Z" fill="url(#paint1_linear_389_2880)"/>
<path d="M37.8262 30.655C37.8262 34.8331 41.2134 38.2203 45.3914 38.2203L58.0002 38.2171L57.9969 23.0898H45.3914C41.2134 23.0898 37.8262 26.477 37.8262 30.655Z" fill="#FFDF00"/>
<path d="M45.3909 33.1763C46.7836 33.1763 47.9126 32.0473 47.9126 30.6545C47.9126 29.2618 46.7836 28.1328 45.3909 28.1328C43.9981 28.1328 42.8691 29.2618 42.8691 30.6545C42.8691 32.0473 43.9981 33.1763 45.3909 33.1763Z" fill="#00335B"/>
</g>
<defs>
<linearGradient id="paint0_linear_389_2880" x1="-15.8252" y1="67.4228" x2="-5.54892" y2="4.53083" gradientUnits="userSpaceOnUse">
<stop stop-color="#FFB300"/>
<stop offset="0.999999" stop-color="#FF4900"/>
</linearGradient>
<linearGradient id="paint1_linear_389_2880" x1="0" y1="10.4805" x2="34.1631" y2="60.1836" gradientUnits="userSpaceOnUse">
<stop stop-color="#FFB300"/>
<stop offset="1" stop-color="#FF4900"/>
</linearGradient>
<clipPath id="clip0_389_2880">
<rect width="58" height="58" fill="white"/>
</clipPath>
</defs>
</svg>
